<svg xmlns="http://www.w3.org/2000/svg" viewBox="0 0 500 500"><g id="freepik--background-simple--inject-13"><path d="M324.18,63.25S251.45,37.38,180.05,78.56,72.62,201.48,41.69,267,28.56,399,83.06,429.4s91.56-14.4,168-16.58,97,8.75,160.47-34.44,74.92-145.2,24.87-220.68S324.18,63.25,324.18,63.25Z" style="fill:#92E3A9"></path><path d="M324.18,63.25S251.45,37.38,180.05,78.56,72.62,201.48,41.69,267,28.56,399,83.06,429.4s91.56-14.4,168-16.58,97,8.75,160.47-34.44,74.92-145.2,24.87-220.68S324.18,63.25,324.18,63.25Z" style="fill:#fff;opacity:0.7000000000000001"></path></g><g id="freepik--Plants--inject-13"><path d="M16.15,435.38c2.1-.3,6.09-2.9,6.09-2.9s-2.51-2.11-2.68-2.22c-2-1.31-6.74-2.63-8.84-.91a3.2,3.2,0,0,0-.06,4.77C12,435.47,14.37,435.64,16.15,435.38Z" style="fill:#263238"></path><path d="M55,415.6s-.93-3.15-1-3.34c-1-2.21-4.17-5.91-6.87-5.63a3.21,3.21,0,0,0-2.69,3.94c.39,1.88,2.26,3.32,3.89,4.09C50.26,415.56,55,415.6,55,415.6Z" style="fill:#263238"></path><path d="M60.1,468.64c.93,1.15,1.77,2.24,2.53,3.24h1.91c-1-1.23-2.08-2.63-3.35-4.13-.73-.88-1.53-1.81-2.37-2.75a30.37,30.37,0,0,0,2.12-2.91,20.72,20.72,0,0,0,5.63.4c.13,1.12.25,2.21.34,3.24.22,2.33.36,4.4.44,6.15H68.9c-.12-1.78-.31-3.91-.58-6.3-.13-1.13-.29-2.35-.47-3.59.44-.14,4-1.25,5.32-2.41s2.42-2.73,2.29-4.4a2.83,2.83,0,0,0-3.24-2.67c-2.35.42-4.13,4.33-4.42,6.44,0,.12,0,1.49,0,2.36-.07-.51-.14-1-.22-1.53-.16-1-.35-2.06-.54-3.17-.12-.53-.23-1.06-.35-1.6s-.28-1.1-.42-1.65c-.35-1.28-.77-2.56-1.22-3.84.9-.14,4.11-.68,5.45-1.55s2.8-2.32,2.92-4a2.83,2.83,0,0,0-2.8-3.13c-2.38.07-4.73,3.66-5.33,5.7,0,.13-.3,1.64-.43,2.47-.28-.76-.55-1.53-.86-2.29-.88-2.21-1.84-4.42-2.79-6.63-.29-.68-.57-1.36-.85-2,.32,0,4.14-.61,5.65-1.57,1.33-.87,2.79-2.33,2.92-4a2.81,2.81,0,0,0-2.8-3.12c-2.38.06-4.74,3.65-5.34,5.69,0,.16-.42,2.33-.49,2.89-.62-1.49-1.23-3-1.77-4.48a47.41,47.41,0,0,1-1.83-6.17c.15,0,4.14-.59,5.68-1.59,1.34-.86,2.8-2.32,2.92-4a2.82,2.82,0,0,0-2.79-3.13c-2.38.07-4.74,3.66-5.34,5.7,0,.13-.33,1.79-.45,2.58h-.13a36.68,36.68,0,0,1-.69-6.44c0-1.19,0-2.33,0-3.44.76,0,4.21-.2,5.69-.94s3-2,3.34-3.66A2.8,2.8,0,0,0,62.5,409c-2.38-.2-5.11,3.11-5.93,5.07,0,.11-.38,1.24-.61,2.07,0-.5.06-1,.1-1.49.15-1.8.4-3.43.63-4.88.14-.82.28-1.56.42-2.25.72-.41,3.63-2.13,4.59-3.44s1.76-3.18,1.28-4.79a2.82,2.82,0,0,0-3.74-1.91c-2.2.92-3.1,5.12-2.92,7.24,0,.18.58,3,.62,3l0,0c-.14.67-.29,1.38-.44,2.16-.27,1.44-.55,3.07-.74,4.87a48.34,48.34,0,0,0-.34,5.84,38,38,0,0,0,.55,6.51.19.19,0,0,1,0,.07c-.32-.61-1.29-2.31-1.38-2.43-1.26-1.72-4.69-4.3-6.95-3.55a2.81,2.81,0,0,0-1.57,3.89c.68,1.54,2.56,2.42,4.1,2.78,1.75.4,5.56-.37,5.86-.44a52.06,52.06,0,0,0,1.74,6.43c.42,1.22.87,2.45,1.35,3.66-.3-.52-.57-1-.62-1-1.25-1.71-4.69-4.29-7-3.54A2.82,2.82,0,0,0,50,436.64c.68,1.53,2.56,2.41,4.11,2.77s4.83-.23,5.69-.4c.18.47.36.93.55,1.4.9,2.23,1.81,4.45,2.64,6.66.29.78.54,1.56.81,2.33l-.54-.91c-1.25-1.72-4.69-4.29-6.95-3.54a2.8,2.8,0,0,0-1.57,3.88c.68,1.54,2.56,2.42,4.11,2.78s4.51-.18,5.53-.37c.24.8.49,1.6.69,2.39.12.55.28,1.06.37,1.61s.21,1.08.32,1.62c.16,1,.33,2.1.46,3.11.1.7.17,1.38.26,2-.29-.78-.87-2.29-.93-2.41a11,11,0,0,0-3.85-4,3.58,3.58,0,0,0-.34-.52,2.82,2.82,0,0,0-4.17-.44c-1.72,1.65-1,5.89-.12,7.8,0,.12.78,1.28,1.25,2l-1-1.15c-.71-.77-1.43-1.53-2.21-2.34L54,459.85c-.39-.39-.84-.76-1.26-1.15-1-.87-2.06-1.7-3.14-2.52.68-.61,3.06-2.84,3.7-4.3s1-3.48.22-4.95a2.8,2.8,0,0,0-4-1.06c-2,1.36-1.94,5.66-1.31,7.69,0,.13.65,1.54,1,2.3-.65-.48-1.3-1-2-1.44-2-1.36-4-2.67-6-4l-1.84-1.23c.25-.21,3.13-2.79,3.85-4.43.64-1.45,1-3.49.22-4.95a2.8,2.8,0,0,0-4-1.06c-2,1.36-1.94,5.66-1.31,7.69,0,.15.93,2.18,1.18,2.68-1.34-.9-2.68-1.81-4-2.76a47.73,47.73,0,0,1-4.93-4.14c.11-.1,3.13-2.78,3.87-4.45.64-1.46,1-3.49.22-5a2.82,2.82,0,0,0-4.05-1.06c-2,1.37-1.94,5.66-1.31,7.7,0,.13.71,1.67,1.05,2.4l-.11.08a36.9,36.9,0,0,1-4.13-5c-.68-1-1.28-1.94-1.85-2.9.61-.44,3.4-2.49,4.22-3.93s1.43-3.34.77-4.89a2.81,2.81,0,0,0-3.91-1.5c-2.09,1.14-2.55,5.41-2.15,7.5,0,.11.37,1.24.64,2.06-.25-.43-.51-.88-.74-1.3-.87-1.58-1.56-3.08-2.17-4.41-.33-.76-.62-1.46-.89-2.11.38-.75,1.85-3.78,1.93-5.4s-.28-3.63-1.58-4.71a2.81,2.81,0,0,0-4.16.48c-1.33,2,.23,6,1.55,7.64.11.15,2.15,2.2,2.17,2.16l0,0q.36.94.81,2c.58,1.35,1.24,2.87,2.08,4.47a49.34,49.34,0,0,0,2.93,5.05,36.35,36.35,0,0,0,4.06,5.13l.05,0c-.61-.33-2.35-1.21-2.49-1.26-2-.74-6.29-1-7.76.87a2.82,2.82,0,0,0,.84,4.11c1.42.91,3.47.61,4.95.05,1.68-.62,4.43-3.37,4.65-3.59a49.59,49.59,0,0,0,5,4.4c1,.79,2.07,1.56,3.14,2.32-.54-.28-1-.52-1.09-.54-2-.74-6.29-1-7.76.87a2.82,2.82,0,0,0,.84,4.11c1.42.91,3.47.61,4.95.05s3.9-2.85,4.53-3.47l1.23.86c2,1.36,4,2.72,5.88,4.1.67.49,1.31,1,2,1.5-.48-.24-.88-.44-1-.46-2-.74-6.28-1-7.75.87a2.81,2.81,0,0,0,.83,4.11c1.42.91,3.47.61,5,.05s3.66-2.63,4.41-3.36c.64.54,1.29,1.07,1.89,1.62.41.38.82.72,1.2,1.13l1.16,1.18c.7.77,1.43,1.57,2.1,2.34.47.53.9,1.05,1.35,1.57-.67-.49-2-1.43-2.11-1.5-1.85-1-6-1.94-7.79-.31a2.81,2.81,0,0,0,.2,4.19c1.27,1.11,3.34,1.13,4.89.8,1.71-.36,4.73-2.55,5.11-2.83C58.76,467,59.46,467.83,60.1,468.64Z" style="fill:#263238"></path><path d="M450,436.78c-2.1-.3-6.09-2.9-6.09-2.9s2.51-2.11,2.69-2.22c2-1.3,6.74-2.63,8.83-.91a3.21,3.21,0,0,1,.07,4.78C454.18,436.87,451.83,437,450,436.78Z" style="fill:#263238"></path><path d="M412.11,417c-.05,0,.93-3.14,1-3.33,1-2.22,4.17-5.92,6.87-5.63a3.21,3.21,0,0,1,2.69,3.94c-.39,1.87-2.26,3.31-3.89,4.08C416.87,417,412.11,417,412.11,417Z" style="fill:#263238"></path><path d="M407.73,468.64c-.93,1.15-1.77,2.24-2.53,3.24h-1.91c1-1.23,2.08-2.63,3.35-4.13.73-.88,1.54-1.81,2.37-2.75a30.37,30.37,0,0,1-2.12-2.91,20.72,20.72,0,0,1-5.63.4c-.13,1.12-.25,2.21-.34,3.24-.22,2.33-.35,4.4-.44,6.15h-1.55c.13-1.78.31-3.91.58-6.3.13-1.13.29-2.35.47-3.59-.44-.14-4-1.25-5.32-2.41s-2.41-2.73-2.28-4.4a2.82,2.82,0,0,1,3.24-2.67c2.34.42,4.13,4.33,4.41,6.44,0,.12,0,1.49.05,2.36.07-.51.14-1,.22-1.53.16-1,.35-2.06.55-3.17.11-.53.23-1.06.34-1.6s.29-1.1.43-1.65c.35-1.28.77-2.56,1.22-3.84-.91-.14-4.12-.68-5.46-1.55s-2.79-2.32-2.92-4a2.83,2.83,0,0,1,2.8-3.13c2.38.07,4.74,3.66,5.33,5.7,0,.13.31,1.64.44,2.47.27-.76.55-1.53.85-2.29.88-2.21,1.84-4.42,2.79-6.63l.86-2c-.33,0-4.15-.61-5.65-1.57-1.34-.87-2.8-2.33-2.93-4a2.82,2.82,0,0,1,2.8-3.12c2.38.06,4.74,3.65,5.34,5.69,0,.16.42,2.33.49,2.89.63-1.49,1.24-3,1.78-4.48a49,49,0,0,0,1.82-6.17c-.15,0-4.14-.59-5.68-1.59-1.34-.86-2.8-2.32-2.92-4a2.83,2.83,0,0,1,2.8-3.13c2.38.07,4.73,3.66,5.33,5.7,0,.13.33,1.79.45,2.58h.14a35.72,35.72,0,0,0,.68-6.44c0-1.19,0-2.33-.05-3.44-.75,0-4.2-.2-5.69-.94s-3-2-3.34-3.66a2.82,2.82,0,0,1,2.44-3.41c2.37-.2,5.11,3.11,5.93,5.07,0,.11.37,1.24.6,2.07,0-.5-.06-1-.1-1.49-.15-1.8-.39-3.43-.63-4.88-.13-.82-.28-1.56-.41-2.25-.73-.41-3.63-2.13-4.59-3.44s-1.77-3.18-1.28-4.79a2.81,2.81,0,0,1,3.73-1.91c2.2.92,3.1,5.12,2.93,7.24,0,.18-.59,3-.63,3l0,0c.15.67.3,1.38.45,2.16.26,1.44.54,3.07.73,4.87a48.34,48.34,0,0,1,.34,5.84,36.07,36.07,0,0,1-.55,6.51s0,.05,0,.07c.33-.61,1.29-2.31,1.38-2.43,1.26-1.72,4.69-4.3,7-3.55a2.83,2.83,0,0,1,1.57,3.89c-.69,1.54-2.56,2.42-4.11,2.78-1.75.4-5.55-.37-5.86-.44a48.76,48.76,0,0,1-1.74,6.43c-.42,1.22-.87,2.45-1.34,3.66l.61-1c1.26-1.71,4.69-4.29,7-3.54a2.81,2.81,0,0,1,1.57,3.89c-.68,1.53-2.56,2.41-4.1,2.77s-4.83-.23-5.69-.4l-.56,1.4c-.9,2.23-1.81,4.45-2.63,6.66-.29.78-.55,1.56-.81,2.33.26-.46.49-.85.53-.91,1.26-1.72,4.69-4.29,7-3.54a2.8,2.8,0,0,1,1.57,3.88c-.68,1.54-2.56,2.42-4.1,2.78s-4.52-.18-5.54-.37c-.24.8-.49,1.6-.69,2.39-.12.55-.28,1.06-.37,1.61s-.21,1.08-.31,1.62c-.16,1-.33,2.1-.47,3.11-.09.7-.17,1.38-.25,2,.28-.78.86-2.29.92-2.41a11,11,0,0,1,3.85-4,3.58,3.58,0,0,1,.34-.52,2.82,2.82,0,0,1,4.17-.44c1.72,1.65,1,5.89.13,7.8-.06.12-.79,1.28-1.26,2,.34-.38.67-.76,1-1.15.7-.77,1.42-1.53,2.2-2.34l1.17-1.15c.39-.39.84-.76,1.27-1.15,1-.87,2.05-1.7,3.13-2.52-.68-.61-3-2.84-3.69-4.3s-1.05-3.48-.23-4.95a2.81,2.81,0,0,1,4.06-1.06c1.95,1.36,1.93,5.66,1.3,7.69,0,.13-.65,1.54-1,2.3.65-.48,1.3-1,2-1.44,1.95-1.36,4-2.67,6-4l1.84-1.23c-.24-.21-3.13-2.79-3.84-4.43-.64-1.45-1.05-3.49-.23-4.95a2.81,2.81,0,0,1,4.06-1.06c1.95,1.36,1.93,5.66,1.3,7.69,0,.15-.93,2.18-1.18,2.68,1.35-.9,2.68-1.81,3.95-2.76a46.7,46.7,0,0,0,4.93-4.14c-.11-.1-3.13-2.78-3.86-4.45-.64-1.46-1.05-3.49-.23-5a2.83,2.83,0,0,1,4.06-1.06c1.95,1.37,1.93,5.66,1.3,7.7,0,.13-.71,1.67-1,2.4l.11.08a36.16,36.16,0,0,0,4.13-5c.69-1,1.29-1.94,1.85-2.9-.61-.44-3.39-2.49-4.22-3.93s-1.43-3.34-.77-4.89a2.81,2.81,0,0,1,3.91-1.5c2.09,1.14,2.55,5.41,2.15,7.5,0,.11-.37,1.24-.64,2.06.25-.43.51-.88.74-1.3.87-1.58,1.56-3.08,2.17-4.41.34-.76.63-1.46.89-2.11-.38-.75-1.85-3.78-1.93-5.4s.28-3.63,1.58-4.71a2.82,2.82,0,0,1,4.17.48c1.32,2-.24,6-1.56,7.64-.11.15-2.15,2.2-2.17,2.16l0,0c-.25.63-.51,1.31-.82,2-.58,1.35-1.24,2.87-2.07,4.47a49.51,49.51,0,0,1-2.94,5.05,37,37,0,0,1-4,5.13l-.06,0c.61-.33,2.35-1.21,2.5-1.26,2-.74,6.28-1,7.75.87a2.82,2.82,0,0,1-.83,4.11c-1.42.91-3.47.61-5,.05-1.68-.62-4.43-3.37-4.65-3.59a49.46,49.46,0,0,1-5,4.4c-1,.79-2.08,1.56-3.15,2.32.54-.28,1-.52,1.1-.54,2-.74,6.28-1,7.75.87a2.82,2.82,0,0,1-.83,4.11c-1.42.91-3.47.61-5,.05s-3.9-2.85-4.53-3.47l-1.23.86c-2,1.36-4,2.72-5.87,4.1-.68.49-1.32,1-2,1.5l.95-.46c2-.74,6.28-1,7.76.87a2.82,2.82,0,0,1-.84,4.11c-1.42.91-3.47.61-5,.05s-3.66-2.63-4.41-3.36c-.64.54-1.29,1.07-1.89,1.62-.4.38-.82.72-1.2,1.13l-1.15,1.18c-.71.77-1.44,1.57-2.11,2.34l-1.34,1.57c.66-.49,2-1.43,2.1-1.5,1.86-1,6.06-1.94,7.8-.31a2.82,2.82,0,0,1-.21,4.19c-1.26,1.11-3.33,1.13-4.89.8-1.71-.36-4.73-2.55-5.11-2.83C409.08,467,408.38,467.83,407.73,468.64Z" style="fill:#263238"></path></g><g id="freepik--Sign--inject-13"><polyline points="202.9 115.64 275.55 78.92 351.32 118.76" style="fill:none;stroke:#263238;stroke-miterlimit:10"></polyline><rect x="167.42" y="107.07" width="220.3" height="75.78" style="fill:#263238"></rect><path d="M190.45,138.18l-.44,3.48v1.19a70.91,70.91,0,0,0,.26,7.66c.17,1.24.34,2.36.52,3.35a13.23,13.23,0,0,0,.69,2.53,12.61,12.61,0,0,0,1,2,3.64,3.64,0,0,0,3.23,1.84,4,4,0,0,0,2.12-.88,3.86,3.86,0,0,1,1.92-.89,2.14,2.14,0,0,1,1.41.75q0,2.5-2.85,3.57a8.7,8.7,0,0,1-3.06.52,5.66,5.66,0,0,1-2.82-.67,6.2,6.2,0,0,1-1.94-1.73,10.37,10.37,0,0,1-1.36-2.71,25.65,25.65,0,0,1-.93-3.28c-.19-1.1-.35-2.36-.48-3.79-.2-2.4-.3-5-.32-7.88l.05-6a24.57,24.57,0,0,1,.34-4.59,8.57,8.57,0,0,1-.15-1.56,5.91,5.91,0,0,1,2.29-4.87,8.77,8.77,0,0,1,5.64-1.81,4.52,4.52,0,0,1,2.33.67,2,2,0,0,1,1.14,1.76,1,1,0,0,1-.41.82,2.46,2.46,0,0,1-1.4.3,1.47,1.47,0,0,1-1.35-.61v0h-.68v-.12q-2.9,0-3.93,1.8-1,1.65-1,5.69Z" style="fill:#fff"></path><path d="M212.64,163.22c-.84,0-1.27-.55-1.27-1.66q0-9.47-.43-17.54a13.41,13.41,0,0,0-2.51-.25,5.37,5.37,0,0,0-2.09.39c0,1.85.14,4.64.42,8.39s.41,6.57.41,8.48a1.58,1.58,0,0,1-.29.9.93.93,0,0,1-.78.41c-.91,0-1.57-2.83-2-8.53q-.86-11.59-.85-28c0-.59.28-.89.85-.89a2.3,2.3,0,0,1,1,.25,2,2,0,0,1,.76.55,37.15,37.15,0,0,0-.17,3.74l.34,10.23-.05,1.87a7.35,7.35,0,0,0,.1,1.29l4.83-.36-.19-16.34v-1.31a2,2,0,0,1,2.26,1.7,30.18,30.18,0,0,1,.17,4.21q0,3.38.47,14.33t.48,16.39a2,2,0,0,1-.42,1.23A1.23,1.23,0,0,1,212.64,163.22Z" style="fill:#fff"></path><path d="M228.36,162.44q-1.53,0-1.53-1.29v-6.49a7.09,7.09,0,0,0-2.54-.82,27,27,0,0,0-3.27-.44,8.34,8.34,0,0,0-.84,2.53c-.21,1.1-.44,2.21-.68,3.33a8.47,8.47,0,0,1-.93,2.64q-1.95,0-2.19-1,.68-1,2.21-9.94t2.52-14a69.45,69.45,0,0,1,2.12-8.52c.77-2.3,1.49-3.45,2.19-3.45a2.59,2.59,0,0,1,1.61.44q0,1.77,1,9.6t1,10.12c0,1.53.17,4.08.52,7.63s.53,6.23.53,8A1.48,1.48,0,0,1,228.36,162.44Zm-2.09-16.25q-.44-4.41-.79-8.41c-.23-2.66-.35-4.27-.35-4.83s0-.88,0-1q-.77.8-2.24,8.92c-1,5.41-1.51,8.83-1.57,10.28a13.85,13.85,0,0,0,3.46.56,9,9,0,0,0,2-.15C226.73,150.94,226.56,149.13,226.27,146.19Z" style="fill:#fff"></path><path d="M233.39,161l.2-29.19v-6.13a1.13,1.13,0,0,1,.24-.82c.16-.17.59-.25,1.28-.25a4.92,4.92,0,0,1,2.09.5,5.27,5.27,0,0,1,1.78,1.33,9.8,9.8,0,0,1,1.22,1.94,10.42,10.42,0,0,1,1,4.5,15.63,15.63,0,0,1-1.21,5.56c-.1.23-.3.71-.59,1.44l-.51,1.28a34.7,34.7,0,0,0,1.87,9.6q.63,2,1.8,5.46c.78,2.31,1.27,3.77,1.46,4.39v.12q0,1.68-.39,1.95a1.36,1.36,0,0,1-.83.28c-.61,0-1.21-.44-1.79-1.33v-.17q-.25-4.53-3.11-13.69c-.88-2.78-1.49-4.85-1.83-6.19V161.2a2.25,2.25,0,0,1-.26,1.17,1.1,1.1,0,0,1-1,.41,1.3,1.3,0,0,1-1.05-.4,1.44,1.44,0,0,1-.36-1Zm2.75-34.1-.27,10.16c0,1,0,1.78,0,2.28a13.57,13.57,0,0,0,1.68-1.92l.78-4.3a4.52,4.52,0,0,0,.07-.78,10.61,10.61,0,0,0-.49-2.89C237.51,127.9,236.9,127.05,236.14,126.91Z" style="fill:#fff"></path><path d="M252.13,127.42l-.87,0a1,1,0,0,0-.72.21,1.1,1.1,0,0,0-.23.81q0,4.86.61,14.56t.6,14.56v1.92a7,7,0,0,1,1-.07c1.38,0,2.07.58,2.07,1.75v.29l-1.24.85-3.38.12c-2.86,0-4.3-.49-4.3-1.48,0-.8.5-1.19,1.51-1.19l1,.07c.49,0,.73-.39.73-1.17q0-3.84-.46-11.5c-.31-5.12-.46-9-.46-11.51l.1-5.08a24.64,24.64,0,0,0-.13-2.77,3.85,3.85,0,0,1-1.16.22,1,1,0,0,1-1.17-1.19,1.27,1.27,0,0,1,.75-1.06,5.54,5.54,0,0,1,1.88-.65,20.13,20.13,0,0,1,3.1-.36,2.08,2.08,0,0,1,1.44.4,1.25,1.25,0,0,1,.44.95,1.46,1.46,0,0,1-.33,1A1.06,1.06,0,0,1,252.13,127.42Z" style="fill:#fff"></path><path d="M263.12,133.57,263,140l.44,11.45.41,8.94c0,1.62-.48,2.43-1.43,2.43a1.29,1.29,0,0,1-1.22-.77,3.82,3.82,0,0,1-.39-1.73l.39-8c0-1.71-.11-4.3-.34-7.75s-.34-6-.34-7.75l.07-4.35a14.48,14.48,0,0,0-.46-4.65l-2.7.27a1.84,1.84,0,0,1-1.13-.37,1.19,1.19,0,0,1-.49-1c0-.39.39-.73,1.19-1a13.16,13.16,0,0,1,2.91-.63,47.63,47.63,0,0,1,5-.34,1.76,1.76,0,0,1,1.11.4,1.26,1.26,0,0,1,.5,1,1.16,1.16,0,0,1-.44,1,1.62,1.62,0,0,1-1.07.35l-1.77-.09-.51,0A53.67,53.67,0,0,1,263.12,133.57Z" style="fill:#fff"></path><path d="M272.42,161.86l.25-9.63a28.38,28.38,0,0,0-.48-4.31,30.25,30.25,0,0,1-.47-4.6,19,19,0,0,0-.59-4.22,39.92,39.92,0,0,0-1.33-4.49,26.68,26.68,0,0,1-1.92-8.92.73.73,0,0,1,.43-.62,1.68,1.68,0,0,1,.88-.25q.46,0,1,1.14a17.2,17.2,0,0,1,1,2.92q.44,1.77.81,3.54c.25,1.19.48,2.33.69,3.44s.37,1.83.47,2.15c.06-.29.14-1,.23-2.07s.19-2.22.3-3.37.29-2.33.49-3.5c.43-2.67,1.09-4,2-4s1.32.18,1.32.53a43.86,43.86,0,0,1-1.19,8.34,44.11,44.11,0,0,0-1.19,8.41l-.15,1.73v.75l.27,13.2.17,2.47v1.12a1.3,1.3,0,0,1-.5,1.06,1.66,1.66,0,0,1-1.08.4,1.37,1.37,0,0,1-1-.35A1.15,1.15,0,0,1,272.42,161.86Z" style="fill:#fff"></path><path d="M286,151.19l-.17-19.28q0-3.22.08-6.44l1.38-.77q1.49.09,3.38,7.92,1.53,6.39,2.48,11.48t1,5.53q.35-1.6,1.27-5.73t1.38-6.42a86.38,86.38,0,0,0,1.68-11.89v-.29a1.52,1.52,0,0,1,.61-1,1.72,1.72,0,0,1,1.07-.39,1.19,1.19,0,0,1,.91.4,1.32,1.32,0,0,1,.35.87q0,6,.45,17.84t.45,17.84a3.42,3.42,0,0,1-.63,2.06c-.42.58-.83.88-1.22.88-.81,0-1.21-.66-1.21-2l-.2-20.95v-2.53q-.33,1.92-1.53,6.72T296,152.4v.32c0,.13-.08.44-.15.92s-.13.89-.2,1.2a8.9,8.9,0,0,1-.33,1.06,1.59,1.59,0,0,1-1.53,1.17c-1.18,0-1.78-1.55-1.78-4.64a53,53,0,0,0-2.23-12.86q-1.12-4.14-1.44-5.59-.09,4-.09,6l.41,20.47a2.66,2.66,0,0,1-.75,1.87,1.8,1.8,0,0,1-1.74-.83,4.67,4.67,0,0,1-.45-2.23Z" style="fill:#fff"></path><path d="M316.78,162.44q-1.53,0-1.53-1.29v-6.49a7.09,7.09,0,0,0-2.54-.82,27,27,0,0,0-3.27-.44,8.34,8.34,0,0,0-.84,2.53c-.22,1.1-.44,2.21-.68,3.33a8.73,8.73,0,0,1-.93,2.64q-2,0-2.19-1,.68-1,2.21-9.94t2.52-14a69.45,69.45,0,0,1,2.12-8.52q1.14-3.45,2.19-3.45a2.54,2.54,0,0,1,1.6.44q0,1.77,1,9.6c.64,5.22,1,8.59,1,10.12s.17,4.08.52,7.63.52,6.23.52,8A1.47,1.47,0,0,1,316.78,162.44Zm-2.09-16.25q-.44-4.41-.79-8.41c-.23-2.66-.35-4.27-.35-4.83s0-.88,0-1q-.78.8-2.25,8.92c-1,5.41-1.5,8.83-1.56,10.28a13.79,13.79,0,0,0,3.46.56,9,9,0,0,0,2-.15C315.15,150.94,315,149.13,314.69,146.19Z" style="fill:#fff"></path><path d="M321.81,161l.19-29.19v-6.13a1.13,1.13,0,0,1,.25-.82c.16-.17.58-.25,1.27-.25a4.89,4.89,0,0,1,2.09.5,5.31,5.31,0,0,1,1.79,1.33,10.28,10.28,0,0,1,1.22,1.94,10.57,10.57,0,0,1,1,4.5,15.67,15.67,0,0,1-1.22,5.56c-.1.23-.29.71-.58,1.44l-.51,1.28a34.33,34.33,0,0,0,1.87,9.6q.63,2,1.8,5.46c.78,2.31,1.26,3.77,1.46,4.39v.12q0,1.68-.39,1.95a1.38,1.38,0,0,1-.83.28c-.61,0-1.21-.44-1.8-1.33v-.17q-.24-4.53-3.11-13.69c-.87-2.78-1.48-4.85-1.82-6.19V161.2a2.16,2.16,0,0,1-.27,1.17,1.08,1.08,0,0,1-1,.41,1.34,1.34,0,0,1-1.06-.4,1.48,1.48,0,0,1-.35-1Zm2.75-34.1-.27,10.16c0,1,0,1.78,0,2.28a14.2,14.2,0,0,0,1.67-1.92l.78-4.3a3.67,3.67,0,0,0,.08-.78,11,11,0,0,0-.49-2.89C325.92,127.9,325.32,127.05,324.56,126.91Z" style="fill:#fff"></path><path d="M335.59,146.42l.07-9.45a53.05,53.05,0,0,0-.36-5.74c-.24-2.17-.37-3.59-.37-4.26a2.24,2.24,0,0,1,.41-1.48,1.24,1.24,0,0,1,1-.48c1.24,0,1.85,1.35,1.85,4T338,139.28c.12-.28.43-1.09.95-2.43s1.05-2.7,1.6-4.06,1.17-2.75,1.8-4.21q2.15-4.91,3.11-4.91a1.44,1.44,0,0,1,1,.38,1.17,1.17,0,0,1,.42.9,44.19,44.19,0,0,1-2.71,6.21,50.59,50.59,0,0,0-3.05,7.22v.87q.74,1.84,4,12.08t3.24,10.85a1.32,1.32,0,0,1-.48,1,1.69,1.69,0,0,1-1.1.41l-1.16-.19q-1.24-7.08-2.58-12.34a59.59,59.59,0,0,0-3.5-10,15.77,15.77,0,0,0-1.56,3.2c-.09,1-.14,1.8-.14,2.39l.31,9.23V160c0,1.77-.56,2.65-1.7,2.65-1,0-1.46-.84-1.46-2.51s.11-4,.33-7S335.59,147.91,335.59,146.42Z" style="fill:#fff"></path><path d="M356.15,144.24l-1.24-.05a1.26,1.26,0,0,0-1,.36v15.36c1.7-.1,2.63-.14,2.77-.14,1.9,0,2.85.43,2.85,1.31v.17a2.27,2.27,0,0,1-1.17,1,4.63,4.63,0,0,1-1.46.42c-.42,0-1,0-1.63,0H353.7c-1.23,0-2-.24-2.29-.72a1.82,1.82,0,0,1-.19-.9V132.21a14.6,14.6,0,0,0-.34-2.53,13.73,13.73,0,0,1-.34-2.55V127a9,9,0,0,1,1.24-1.75l3.69-.44a3,3,0,0,1,1.52.45,1.34,1.34,0,0,1,.77,1.18c0,1-.76,1.48-2.26,1.48l-1.44,0-.53,0,.39,8.22c0,.66,0,1.63-.13,2.9s-.12,2.2-.12,2.79l.73-.17a6.68,6.68,0,0,1,1.59-.27,1.49,1.49,0,0,1,1,.41,1.32,1.32,0,0,1,.45,1,1.62,1.62,0,0,1-.36,1A1.15,1.15,0,0,1,356.15,144.24Z" style="fill:#fff"></path><path d="M367.94,133.57l-.1,6.41.44,11.45.41,8.94c0,1.62-.47,2.43-1.43,2.43A1.29,1.29,0,0,1,366,162a3.82,3.82,0,0,1-.39-1.73l.39-8c0-1.71-.11-4.3-.34-7.75s-.34-6-.34-7.75l.08-4.35a14.38,14.38,0,0,0-.47-4.65l-2.69.27a1.8,1.8,0,0,1-1.13-.37,1.17,1.17,0,0,1-.5-1c0-.39.4-.73,1.19-1a13.13,13.13,0,0,1,2.92-.63,47.29,47.29,0,0,1,5-.34,1.75,1.75,0,0,1,1.1.4,1.26,1.26,0,0,1,.5,1,1.16,1.16,0,0,1-.44,1,1.62,1.62,0,0,1-1.07.35l-1.77-.09-.51,0A51.48,51.48,0,0,1,367.94,133.57Z" style="fill:#fff"></path></g><g id="freepik--Pennants--inject-13"><path d="M25.38,60.14q10.14-8.73,19.9-17.7-12.95-3.9-25.78-8.29Q22.21,47.14,25.38,60.14Z" style="fill:#92E3A9"></path><path d="M55.47,69.1Q65.21,60,74.55,50.56q-13.05-3.33-26-7.16Q51.77,56.26,55.47,69.1Z" style="fill:#263238"></path><path d="M84.74,76.51Q94.09,67,103,57.19q-13.15-2.77-26.23-6.07Q80.54,63.83,84.74,76.51Z" style="fill:#92E3A9"></path><path d="M115.31,82.9q8.91-9.95,17.42-20.08-13.24-2.22-26.41-4.94Q110.6,70.41,115.31,82.9Z" style="fill:#263238"></path><path d="M145,87.82q8.49-10.29,16.57-20.77Q148.23,65.37,135,63.2,139.76,75.53,145,87.82Z" style="fill:#92E3A9"></path><path d="M175.87,91.64q8-10.64,15.65-21.46-13.35-1.11-26.65-2.72Q170.15,79.6,175.87,91.64Z" style="fill:#263238"></path><path d="M205.76,94.08q7.59-11,14.76-22.08-13.36-.56-26.72-1.63Q199.56,82.28,205.76,94.08Z" style="fill:#92E3A9"></path><path d="M236.81,95.33q7.13-11.28,13.81-22.68-13.38,0-26.75-.51Q230.13,83.79,236.81,95.33Z" style="fill:#263238"></path><path d="M266.78,95.29q6.66-11.55,12.88-23.23-13.37.56-26.75.58Q259.63,84,266.78,95.29Z" style="fill:#92E3A9"></path><path d="M297.83,94q6.17-11.82,11.9-23.75Q296.38,71.32,283,71.92,290.21,83,297.83,94Z" style="fill:#263238"></path><path d="M327.72,91.44q5.68-12.06,10.93-24.21Q325.34,68.88,312,70,319.66,80.82,327.72,91.44Z" style="fill:#92E3A9"></path><path d="M358.6,87.54q5.19-12.3,9.92-24.66Q355.28,65.1,342,66.81,350.1,77.27,358.6,87.54Z" style="fill:#263238"></path><path d="M388.26,82.53q4.68-12.5,8.92-25-13.15,2.76-26.4,5Q379.32,72.63,388.26,82.53Z" style="fill:#92E3A9"></path><path d="M418.81,76.06Q423,63.37,426.7,50.65,413.64,54,400.48,56.79,409.45,66.54,418.81,76.06Z" style="fill:#263238"></path><path d="M448.07,68.58q3.66-12.86,6.88-25.72-13,3.86-26,7.22Q438.31,59.46,448.07,68.58Z" style="fill:#92E3A9"></path><path d="M478.14,59.53q3.12-13,5.81-26Q471.14,38,458.19,41.88,468,50.84,478.14,59.53Z" style="fill:#263238"></path><path d="M492.86,30.73a714.61,714.61,0,0,1-484.09,0L9,30.12a713.94,713.94,0,0,0,483.65,0C492.71,30.32,492.78,30.52,492.86,30.73Z" style="fill:#263238"></path></g><g id="freepik--Clothe--inject-13"><path d="M429.23,278.89l-3.07-2.12a29,29,0,0,1-10-12.52l-2.55-6h-4.06l-2.56,6a29,29,0,0,1-10,12.52l-3.07,2.12a6.87,6.87,0,0,0-2.76,5.66H432A6.87,6.87,0,0,0,429.23,278.89Zm-16.5,3.16H395.18c0-1.89,3-3.63,4.19-4.59l2.12-1.71a23.08,23.08,0,0,0,6.92-10.13l1.77-4.82H413l1.77,4.82a23.24,23.24,0,0,0,6.92,10.13l2.12,1.71c1.19,1,4.13,2.7,4.13,4.59Z" style="fill:#fff;stroke:#263238;stroke-linejoin:round"></path><path d="M411.56,258.19v-4.38s2.51-1.88,2.51-4.59-2.09-3.75-4.38-2.92" style="fill:none;stroke:#263238;stroke-linecap:round;stroke-linejoin:round"></path><path d="M399.9,272.28s4.65,5.36,10.5,5.45c6.2.1,13.49-5.33,13.49-5.33a30.82,30.82,0,0,0,5.4,3.73c3.25,1.77,5.39,4.37,7.09,8.86,1.9,5,6.09,18.64,6.09,18.64l-12.07.59,1.65,27.38H391.89l2.72-27.9H382.89s3.88-18.41,5.66-22S399.9,272.28,399.9,272.28Z" style="fill:#fff;stroke:#263238;stroke-linejoin:round"></path><line x1="394.61" y1="303.7" x2="395.23" y2="289.07" style="fill:none;stroke:#263238;stroke-linejoin:round"></line><line x1="430.4" y1="304.22" x2="429.45" y2="290" style="fill:none;stroke:#263238;stroke-linejoin:round"></line><path d="M423,278.89l-3.07-2.12a29,29,0,0,1-10-12.52l-2.56-6H403.3l-2.55,6a29,29,0,0,1-10,12.52l-3.07,2.12a6.87,6.87,0,0,0-2.77,5.66h40.83A6.87,6.87,0,0,0,423,278.89Zm-16.51,3.16H388.93c0-1.89,3-3.63,4.19-4.59l2.12-1.71a23.24,23.24,0,0,0,6.92-10.13l1.77-4.82h2.81l1.77,4.82a23.24,23.24,0,0,0,6.92,10.13l2.12,1.71c1.19,1,4.13,2.7,4.13,4.59Z" style="fill:#fff;stroke:#263238;stroke-linejoin:round"></path><path d="M405.31,258.19v-4.38s2.5-1.88,2.5-4.59-2.08-3.75-4.38-2.92" style="fill:none;stroke:#263238;stroke-linecap:round;stroke-linejoin:round"></path><path d="M393.65,272.28s4.65,5.36,10.49,5.45c6.21.1,13.5-5.33,13.5-5.33a30.35,30.35,0,0,0,5.4,3.73c3.25,1.77,5.39,4.37,7.09,8.86,1.9,5,6.09,18.64,6.09,18.64l-12.07.59,1.65,27.38H385.64l2.72-27.9H376.64s3.88-18.41,5.65-22S393.65,272.28,393.65,272.28Z" style="fill:#6b6b6b;stroke:#263238;stroke-linecap:round;stroke-linejoin:round"></path><line x1="388.36" y1="303.7" x2="388.97" y2="289.07" style="fill:none;stroke:#263238;stroke-linejoin:round"></line><line x1="424.15" y1="304.22" x2="423.2" y2="290" style="fill:none;stroke:#263238;stroke-linejoin:round"></line><polygon points="388.43 264.55 399.31 265.07 399.31 311.67 386.39 311.67 388.43 264.55" style="fill:#fff;stroke:#263238;stroke-linejoin:round"></polygon><path d="M412,277.93l-3.07-2.12a28.94,28.94,0,0,1-10-12.51l-2.56-6h-4.06l-2.56,6a29,29,0,0,1-10,12.51l-3.06,2.12a6.87,6.87,0,0,0-2.77,5.67h40.82A6.87,6.87,0,0,0,412,277.93Zm-16.5,3.16H378c0-1.88,3-3.62,4.18-4.58l2.13-1.72a23.11,23.11,0,0,0,6.91-10.12l1.77-4.83h2.81l1.77,4.83a23.21,23.21,0,0,0,6.92,10.12l2.12,1.72c1.19,1,4.13,2.7,4.13,4.58Z" style="fill:#fff;stroke:#263238;stroke-linejoin:round"></path><path d="M394.32,257.23v-4.38s2.51-1.87,2.51-4.58-2.09-3.76-4.38-2.92" style="fill:none;stroke:#263238;stroke-linecap:round;stroke-linejoin:round"></path><path d="M388.43,264.55l4.73,41.58,5.78-42.83s9.87,10.1,13.12,11.88,6.2,4.13,7.08,8.85,5.61,52,5.61,52l-10.92.59,1,26.72H370.72l2.65-27.9H363s6.5-51.08,8.27-54.62S388.43,264.55,388.43,264.55Z" style="fill:#fff;stroke:#263238;stroke-linejoin:round"></path><path d="M388.43,264.55l5.81,44.35-1.39,1.84-12.92-38.29S384,265.87,388.43,264.55Z" style="fill:#fff;stroke:#263238;stroke-linejoin:round"></path><path d="M398.94,263.3,391,321.82,409,272S398.88,262.31,398.94,263.3Z" style="fill:#fff;stroke:#263238;stroke-linejoin:round"></path><path d="M371.31,280.79s-8.45,41-10.29,50.71-2.77,25.38-2.77,25.38l16.15.46L379,288.13" style="fill:#fff;stroke:#263238;stroke-linejoin:round"></path><path d="M418.09,280.79s8.44,41,10.29,50.71,2.77,25.38,2.77,25.38l-16.15.46-4.61-69.21" style="fill:#fff;stroke:#263238;stroke-linejoin:round"></path><line x1="391.01" y1="321.82" x2="391.01" y2="363.8" style="fill:#fff;stroke:#263238;stroke-linejoin:round"></line><path d="M394.79,278.89l-3.07-2.12a29,29,0,0,1-10-12.52l-2.56-6h-4.06l-2.55,6a29,29,0,0,1-10,12.52l-3.07,2.12a6.87,6.87,0,0,0-2.77,5.66h40.82A6.87,6.87,0,0,0,394.79,278.89Zm-16.51,3.16H360.74c0-1.89,3-3.63,4.19-4.59l2.12-1.71A23.24,23.24,0,0,0,374,265.62l1.77-4.82h2.81l1.77,4.82a23.16,23.16,0,0,0,6.92,10.13l2.12,1.71c1.19,1,4.13,2.7,4.13,4.59Z" style="fill:#fff;stroke:#263238;stroke-linejoin:round"></path><path d="M377.12,258.19v-4.38s2.5-1.88,2.5-4.59-2.08-3.75-4.38-2.92" style="fill:none;stroke:#263238;stroke-linecap:round;stroke-linejoin:round"></path><path d="M371.23,265.5,376,279.08l5.78-14.83s9.87,10.11,13.12,11.88,6.2,4.14,7.09,8.86,5.61,52,5.61,52l-10.93.59,1,26.72h-44.1l2.66-27.9H345.84s6.49-51.08,8.26-54.63S371.23,265.5,371.23,265.5Z" style="fill:#263238;stroke:#263238;stroke-linejoin:round"></path><polygon points="366.8 268.75 369.46 283.22 375.07 273.77 371.52 263.73 366.8 268.75" style="fill:#fff;stroke:#263238;stroke-linejoin:round"></polygon><polygon points="381.73 264.25 376.84 274.06 381.86 283.81 385.99 267.57 381.73 264.25" style="fill:#fff;stroke:#263238;stroke-linejoin:round"></polygon><line x1="396.62" y1="337.55" x2="394.26" y2="292.67" style="fill:none;stroke:#263238;stroke-linejoin:round"></line><line x1="356.17" y1="336.37" x2="360.3" y2="292.67" style="fill:none;stroke:#263238;stroke-linejoin:round"></line><path d="M378.79,278.89l-3.07-2.12a29,29,0,0,1-10-12.52l-2.56-6h-4.06l-2.55,6a29,29,0,0,1-10,12.52l-3.07,2.12a6.87,6.87,0,0,0-2.77,5.66h40.82A6.87,6.87,0,0,0,378.79,278.89Zm-16.51,3.16H344.74c0-1.89,3-3.63,4.19-4.59l2.12-1.71A23.24,23.24,0,0,0,358,265.62l1.77-4.82h2.81l1.77,4.82a23.16,23.16,0,0,0,6.92,10.13l2.12,1.71c1.19,1,4.13,2.7,4.13,4.59Z" style="fill:#fff;stroke:#263238;stroke-linejoin:round"></path><path d="M361.12,258.19v-4.38s2.5-1.88,2.5-4.59-2.08-3.75-4.38-2.92" style="fill:none;stroke:#263238;stroke-linecap:round;stroke-linejoin:round"></path><path d="M355.23,265.5,360,279.08l5.78-14.83s9.87,10.11,13.12,11.88,6.2,4.14,7.09,8.86,5.61,52,5.61,52l-10.93.59,1,26.72h-44.1l2.66-27.9H329.84s6.49-51.08,8.26-54.63S355.23,265.5,355.23,265.5Z" style="fill:#6b6b6b;stroke:#263238;stroke-linecap:round;stroke-linejoin:round"></path><polygon points="350.8 268.75 353.46 283.22 359.07 273.77 355.52 263.73 350.8 268.75" style="fill:#fff;stroke:#263238;stroke-linejoin:round"></polygon><polygon points="365.73 264.25 360.84 274.06 365.86 283.81 369.99 267.57 365.73 264.25" style="fill:#fff;stroke:#263238;stroke-linejoin:round"></polygon><line x1="380.62" y1="337.55" x2="378.26" y2="292.67" style="fill:none;stroke:#263238;stroke-linejoin:round"></line><line x1="340.17" y1="336.37" x2="344.3" y2="292.67" style="fill:none;stroke:#263238;stroke-linejoin:round"></line><path d="M364,278.89,361,276.77a29,29,0,0,1-10-12.52l-2.56-6h-4.06l-2.55,6a29,29,0,0,1-10,12.52l-3.07,2.12a6.85,6.85,0,0,0-2.77,5.66H366.8A6.87,6.87,0,0,0,364,278.89Zm-16.51,3.16H330c0-1.89,3-3.63,4.19-4.59l2.12-1.71a23.24,23.24,0,0,0,6.92-10.13L345,260.8h2.81l1.77,4.82a23.14,23.14,0,0,0,6.91,10.13l2.13,1.71c1.19,1,4.13,2.7,4.13,4.59Z" style="fill:#fff;stroke:#263238;stroke-linejoin:round"></path><path d="M346.37,258.19v-4.38s2.5-1.88,2.5-4.59-2.08-3.75-4.38-2.92" style="fill:none;stroke:#263238;stroke-linecap:round;stroke-linejoin:round"></path><path d="M334.71,272.28s4.65,5.36,10.49,5.45c6.21.1,13.5-5.33,13.5-5.33a30.35,30.35,0,0,0,5.4,3.73c3.25,1.77,5.38,4.37,7.09,8.86,1.9,5,6.09,18.64,6.09,18.64l-12.07.59,1.65,27.38H326.7l2.72-27.9H317.7s3.88-18.41,5.65-22S334.71,272.28,334.71,272.28Z" style="fill:#a1a1a1;stroke:#263238;stroke-linecap:round;stroke-linejoin:round"></path><line x1="329.42" y1="303.7" x2="330.03" y2="289.07" style="fill:none;stroke:#263238;stroke-linejoin:round"></line><line x1="365.21" y1="304.22" x2="364.26" y2="290" style="fill:none;stroke:#263238;stroke-linejoin:round"></line><path d="M349.23,278.89l-3.06-2.12a29,29,0,0,1-10-12.52l-2.56-6h-4.06l-2.56,6a28.92,28.92,0,0,1-10,12.52L314,278.89a6.85,6.85,0,0,0-2.77,5.66H352A6.85,6.85,0,0,0,349.23,278.89Zm-16.5,3.16H315.19c0-1.89,3-3.63,4.18-4.59l2.13-1.71a23.14,23.14,0,0,0,6.91-10.13l1.77-4.82H333l1.77,4.82a23.14,23.14,0,0,0,6.91,10.13l2.13,1.71c1.18,1,4.13,2.7,4.13,4.59Z" style="fill:#fff;stroke:#263238;stroke-linejoin:round"></path><path d="M331.57,258.19v-4.38s2.5-1.88,2.5-4.59-2.09-3.75-4.38-2.92" style="fill:none;stroke:#263238;stroke-linecap:round;stroke-linejoin:round"></path><path d="M319.91,272.28s4.65,5.36,10.49,5.45c6.21.1,13.5-5.33,13.5-5.33a30.35,30.35,0,0,0,5.4,3.73c3.25,1.77,5.38,4.37,7.08,8.86,1.9,5,6.1,18.64,6.1,18.64l-12.08.59,1.66,27.38H311.9l2.72-27.9H302.89s3.89-18.41,5.66-22S319.91,272.28,319.91,272.28Z" style="fill:#fff;stroke:#263238;stroke-linejoin:round"></path><line x1="314.62" y1="303.7" x2="315.23" y2="289.07" style="fill:none;stroke:#263238;stroke-linejoin:round"></line><line x1="350.4" y1="304.22" x2="349.46" y2="290" style="fill:none;stroke:#263238;stroke-linejoin:round"></line><path d="M306,471.53V255.89a6.36,6.36,0,0,1,6.36-6.36H438.51a6.36,6.36,0,0,1,6.36,6.36V472.55" style="fill:none;stroke:#263238;stroke-linejoin:round;stroke-width:4px"></path><path d="M268.29,278.89l-3.07-2.12a29,29,0,0,1-10-12.52l-2.55-6h-4.06l-2.56,6a29,29,0,0,1-10,12.52L233,278.89a6.87,6.87,0,0,0-2.76,5.66h40.82A6.87,6.87,0,0,0,268.29,278.89Zm-16.5,3.16H234.24c0-1.89,3-3.63,4.19-4.59l2.12-1.71a23.16,23.16,0,0,0,6.92-10.13l1.77-4.82h2.81l1.77,4.82a23.24,23.24,0,0,0,6.92,10.13l2.12,1.71c1.19,1,4.13,2.7,4.13,4.59Z" style="fill:#fff;stroke:#263238;stroke-linejoin:round"></path><path d="M250.62,258.19v-4.38s2.5-1.88,2.5-4.59-2.08-3.75-4.37-2.92" style="fill:none;stroke:#263238;stroke-linecap:round;stroke-linejoin:round"></path><path d="M239,272.28s4.65,5.36,10.5,5.45c6.2.1,13.49-5.33,13.49-5.33a30.82,30.82,0,0,0,5.4,3.73c3.25,1.77,5.39,4.37,7.09,8.86,1.9,5,6.09,18.64,6.09,18.64l-12.07.59,1.65,27.38H231l2.72-27.9H222s3.88-18.41,5.65-22S239,272.28,239,272.28Z" style="fill:#fff;stroke:#263238;stroke-linejoin:round"></path><line x1="233.67" y1="303.7" x2="234.29" y2="289.07" style="fill:none;stroke:#263238;stroke-linejoin:round"></line><line x1="269.46" y1="304.22" x2="268.51" y2="290" style="fill:none;stroke:#263238;stroke-linejoin:round"></line><path d="M262,278.89,259,276.77a29,29,0,0,1-10-12.52l-2.56-6h-4.06l-2.55,6a29,29,0,0,1-10,12.52l-3.07,2.12a6.87,6.87,0,0,0-2.77,5.66H264.8A6.87,6.87,0,0,0,262,278.89Zm-16.51,3.16H228c0-1.89,3-3.63,4.19-4.59l2.12-1.71a23.24,23.24,0,0,0,6.92-10.13L243,260.8h2.81l1.77,4.82a23.16,23.16,0,0,0,6.92,10.13l2.12,1.71c1.19,1,4.13,2.7,4.13,4.59Z" style="fill:#fff;stroke:#263238;stroke-linejoin:round"></path><path d="M244.37,258.19v-4.38s2.5-1.88,2.5-4.59-2.08-3.75-4.38-2.92" style="fill:none;stroke:#263238;stroke-linecap:round;stroke-linejoin:round"></path><path d="M232.71,272.28s4.65,5.36,10.49,5.45c6.21.1,13.5-5.33,13.5-5.33a30.35,30.35,0,0,0,5.4,3.73c3.25,1.77,5.39,4.37,7.09,8.86,1.9,5,6.09,18.64,6.09,18.64l-12.07.59,1.65,27.38H224.7l2.72-27.9H215.7s3.88-18.41,5.65-22S232.71,272.28,232.71,272.28Z" style="fill:#6b6b6b;stroke:#263238;stroke-linecap:round;stroke-linejoin:round"></path><line x1="227.42" y1="303.7" x2="228.03" y2="289.07" style="fill:none;stroke:#263238;stroke-linejoin:round"></line><line x1="263.21" y1="304.22" x2="262.26" y2="290" style="fill:none;stroke:#263238;stroke-linejoin:round"></line><polygon points="227.49 264.55 238.37 265.07 238.37 311.67 225.45 311.67 227.49 264.55" style="fill:#fff;stroke:#263238;stroke-linejoin:round"></polygon><path d="M251.05,277.93,248,275.81a29,29,0,0,1-10-12.51l-2.55-6h-4.06l-2.56,6a29,29,0,0,1-10,12.51l-3.07,2.12A6.88,6.88,0,0,0,213,283.6h40.82A6.87,6.87,0,0,0,251.05,277.93Zm-16.5,3.16H217c0-1.88,3-3.62,4.19-4.58l2.13-1.72a23.11,23.11,0,0,0,6.91-10.12l1.77-4.83h2.81l1.77,4.83a23.21,23.21,0,0,0,6.92,10.12l2.12,1.72c1.19,1,4.13,2.7,4.13,4.58Z" style="fill:#fff;stroke:#263238;stroke-linejoin:round"></path><path d="M233.38,257.23v-4.38s2.51-1.87,2.51-4.58-2.09-3.76-4.38-2.92" style="fill:none;stroke:#263238;stroke-linecap:round;stroke-linejoin:round"></path><path d="M227.49,264.55l4.73,41.58L238,263.3s9.88,10.1,13.13,11.88,6.2,4.13,7.08,8.85,5.61,52,5.61,52l-10.92.59,1,26.72H209.78l2.65-27.9H202.1s6.49-51.08,8.27-54.62S227.49,264.55,227.49,264.55Z" style="fill:#fff;stroke:#263238;stroke-linejoin:round"></path><path d="M227.49,264.55l5.81,44.35-1.39,1.84L219,272.45S223.07,265.87,227.49,264.55Z" style="fill:#fff;stroke:#263238;stroke-linejoin:round"></path><path d="M238,263.3l-7.92,58.52,18-49.83S237.94,262.31,238,263.3Z" style="fill:#fff;stroke:#263238;stroke-linejoin:round"></path><path d="M210.37,280.79s-8.45,41-10.29,50.71-2.77,25.38-2.77,25.38l16.15.46,4.61-69.21" style="fill:#fff;stroke:#263238;stroke-linejoin:round"></path><path d="M257.15,280.79s8.44,41,10.29,50.71,2.77,25.38,2.77,25.38l-16.15.46-4.61-69.21" style="fill:#fff;stroke:#263238;stroke-linejoin:round"></path><line x1="230.07" y1="321.82" x2="230.07" y2="363.8" style="fill:#fff;stroke:#263238;stroke-linejoin:round"></line><path d="M233.85,278.89l-3.07-2.12a29,29,0,0,1-10-12.52l-2.56-6h-4.06l-2.55,6a29,29,0,0,1-10,12.52l-3.07,2.12a6.87,6.87,0,0,0-2.77,5.66h40.82A6.87,6.87,0,0,0,233.85,278.89Zm-16.51,3.16H199.8c0-1.89,3-3.63,4.19-4.59l2.12-1.71A23.24,23.24,0,0,0,213,265.62l1.77-4.82h2.81l1.77,4.82a23.08,23.08,0,0,0,6.92,10.13l2.12,1.71c1.19,1,4.13,2.7,4.13,4.59Z" style="fill:#fff;stroke:#263238;stroke-linejoin:round"></path><path d="M216.18,258.19v-4.38s2.5-1.88,2.5-4.59-2.08-3.75-4.38-2.92" style="fill:none;stroke:#263238;stroke-linecap:round;stroke-linejoin:round"></path><path d="M210.29,265.5,215,279.08l5.78-14.83s9.87,10.11,13.12,11.88,6.2,4.14,7.09,8.86,5.61,52,5.61,52l-10.93.59,1,26.72h-44.1l2.66-27.9H184.89s6.5-51.08,8.27-54.63S210.29,265.5,210.29,265.5Z" style="fill:#263238;stroke:#263238;stroke-linejoin:round"></path><polygon points="205.86 268.75 208.52 283.22 214.13 273.77 210.58 263.73 205.86 268.75" style="fill:#fff;stroke:#263238;stroke-linejoin:round"></polygon><polygon points="220.79 264.25 215.9 274.06 220.92 283.81 225.05 267.57 220.79 264.25" style="fill:#fff;stroke:#263238;stroke-linejoin:round"></polygon><line x1="235.68" y1="337.55" x2="233.32" y2="292.67" style="fill:none;stroke:#263238;stroke-linejoin:round"></line><line x1="195.23" y1="336.37" x2="199.36" y2="292.67" style="fill:none;stroke:#263238;stroke-linejoin:round"></line><path d="M217.85,278.89l-3.07-2.12a29,29,0,0,1-10-12.52l-2.56-6h-4.06l-2.55,6a29,29,0,0,1-10,12.52l-3.07,2.12a6.87,6.87,0,0,0-2.77,5.66h40.82A6.87,6.87,0,0,0,217.85,278.89Zm-16.51,3.16H183.8c0-1.89,3-3.63,4.19-4.59l2.12-1.71A23.24,23.24,0,0,0,197,265.62l1.77-4.82h2.81l1.77,4.82a23.08,23.08,0,0,0,6.92,10.13l2.12,1.71c1.19,1,4.13,2.7,4.13,4.59Z" style="fill:#fff;stroke:#263238;stroke-linejoin:round"></path><path d="M200.18,258.19v-4.38s2.5-1.88,2.5-4.59-2.08-3.75-4.38-2.92" style="fill:none;stroke:#263238;stroke-linecap:round;stroke-linejoin:round"></path><path d="M194.29,265.5,199,279.08l5.78-14.83s9.87,10.11,13.12,11.88,6.2,4.14,7.09,8.86,5.61,52,5.61,52l-10.93.59,1,26.72h-44.1l2.66-27.9H168.89s6.5-51.08,8.27-54.63S194.29,265.5,194.29,265.5Z" style="fill:#6b6b6b;stroke:#263238;stroke-linecap:round;stroke-linejoin:round"></path><polygon points="189.86 268.75 192.52 283.22 198.13 273.77 194.58 263.73 189.86 268.75" style="fill:#fff;stroke:#263238;stroke-linejoin:round"></polygon><polygon points="204.79 264.25 199.9 274.06 204.92 283.81 209.05 267.57 204.79 264.25" style="fill:#fff;stroke:#263238;stroke-linejoin:round"></polygon><line x1="219.68" y1="337.55" x2="217.32" y2="292.67" style="fill:none;stroke:#263238;stroke-linejoin:round"></line><line x1="179.23" y1="336.37" x2="183.36" y2="292.67" style="fill:none;stroke:#263238;stroke-linejoin:round"></line><path d="M203.1,278.89,200,276.77a29,29,0,0,1-10-12.52l-2.56-6h-4.06l-2.55,6a29,29,0,0,1-10,12.52l-3.07,2.12a6.85,6.85,0,0,0-2.77,5.66h40.82A6.87,6.87,0,0,0,203.1,278.89Zm-16.51,3.16H169.05c0-1.89,3-3.63,4.19-4.59l2.12-1.71a23.24,23.24,0,0,0,6.92-10.13l1.77-4.82h2.81l1.77,4.82a23.14,23.14,0,0,0,6.91,10.13l2.13,1.71c1.19,1,4.13,2.7,4.13,4.59Z" style="fill:#fff;stroke:#263238;stroke-linejoin:round"></path><path d="M185.43,258.19v-4.38s2.5-1.88,2.5-4.59-2.08-3.75-4.38-2.92" style="fill:none;stroke:#263238;stroke-linecap:round;stroke-linejoin:round"></path><path d="M173.77,272.28s4.65,5.36,10.49,5.45c6.21.1,13.5-5.33,13.5-5.33a30.35,30.35,0,0,0,5.4,3.73c3.25,1.77,5.38,4.37,7.09,8.86,1.9,5,6.09,18.64,6.09,18.64l-12.07.59,1.65,27.38H165.76l2.72-27.9H156.76s3.88-18.41,5.65-22S173.77,272.28,173.77,272.28Z" style="fill:#a1a1a1;stroke:#263238;stroke-linecap:round;stroke-linejoin:round"></path><line x1="168.48" y1="303.7" x2="169.09" y2="289.07" style="fill:none;stroke:#263238;stroke-linejoin:round"></line><line x1="204.27" y1="304.22" x2="203.32" y2="290" style="fill:none;stroke:#263238;stroke-linejoin:round"></line><path d="M188.29,278.89l-3.07-2.12a29,29,0,0,1-10-12.52l-2.56-6h-4.06l-2.56,6a29,29,0,0,1-10,12.52L153,278.89a6.85,6.85,0,0,0-2.77,5.66h40.82A6.85,6.85,0,0,0,188.29,278.89Zm-16.5,3.16H154.25c0-1.89,3-3.63,4.18-4.59l2.13-1.71a23.14,23.14,0,0,0,6.91-10.13l1.77-4.82h2.82l1.77,4.82a23.14,23.14,0,0,0,6.91,10.13l2.13,1.71c1.18,1,4.13,2.7,4.13,4.59Z" style="fill:#fff;stroke:#263238;stroke-linejoin:round"></path><path d="M170.63,258.19v-4.38s2.5-1.88,2.5-4.59-2.09-3.75-4.38-2.92" style="fill:none;stroke:#263238;stroke-linecap:round;stroke-linejoin:round"></path><path d="M159,272.28s4.65,5.36,10.49,5.45c6.21.1,13.5-5.33,13.5-5.33a30.35,30.35,0,0,0,5.4,3.73c3.25,1.77,5.38,4.37,7.08,8.86,1.9,5,6.1,18.64,6.1,18.64l-12.08.59,1.66,27.38H151l2.72-27.9H142s3.89-18.41,5.66-22S159,272.28,159,272.28Z" style="fill:#fff;stroke:#263238;stroke-linejoin:round"></path><line x1="153.68" y1="303.7" x2="154.29" y2="289.07" style="fill:none;stroke:#263238;stroke-linejoin:round"></line><line x1="189.46" y1="304.22" x2="188.52" y2="290" style="fill:none;stroke:#263238;stroke-linejoin:round"></line><path d="M145,471.53V255.89a6.36,6.36,0,0,1,6.36-6.36H277.57a6.36,6.36,0,0,1,6.36,6.36V472.55" style="fill:none;stroke:#263238;stroke-linejoin:round;stroke-width:4px"></path></g><g id="freepik--character-2--inject-13"><path d="M221.92,252.39s-7.5,20.75-7.5,25.25-.25,37,0,42.75-.25,7.25,0,10.75,5.25,10.75,5.75,11.5,5,.25,6-.75-.25-2.75-.25-2.75,1.75-.75,2-2a2.75,2.75,0,0,0-.75-2.25s2-2,.75-3.5a3.5,3.5,0,0,0-3-1.25s2-4.75,1.5-7.75-1.25-6-1.25-6,10.25-53.75,10.75-55.5l.5-1.75v-2.5Z" style="fill:#fff;stroke:#263238;stroke-linecap:round;stroke-linejoin:round"></path><path d="M218.67,323.39s-1.75,8.25-1,9.75,4.25,6.5,6,6.75,2-1.5,1-3.5-1.75-4-1.75-4a9.6,9.6,0,0,0,1.25-8.75" style="fill:#fff;stroke:#263238;stroke-linecap:round;stroke-linejoin:round"></path><polygon points="275.67 388.64 288.42 456.64 303.42 456.64 305.67 387.39 275.67 388.64" style="fill:#fff;stroke:#263238;stroke-linecap:round;stroke-linejoin:round"></polygon><path d="M303.42,456.64s.75-6.25-3.75-8.75-11,0-11,1.75a45.11,45.11,0,0,1-.5,5s-3.5,6.25-5,9.75,1.75,6.5,3.5,7,19,0,19,0,3.75-1.5,3-5a34.18,34.18,0,0,0-1.25-4.75Z" style="fill:#92E3A9;stroke:#263238;stroke-linecap:round;stroke-linejoin:round"></path><path d="M308.4,468.89c-1.76.25-6.48.5-6.48.5s-4.5-4.75-6-4.5-5.5,5-5.5,5h-6a5.5,5.5,0,0,0,2.26,1.5c1.75.5,19,0,19,0A5.74,5.74,0,0,0,308.4,468.89Z" style="fill:#fff;stroke:#263238;stroke-linecap:round;stroke-linejoin:round"></path><rect x="289.17" y="454.39" width="13" height="5.25" style="fill:#fff;stroke:#263238;stroke-linecap:round;stroke-linejoin:round"></rect><path d="M237.92,386.14s2.5,30.25,5,43.25,3.5,19.5,3.5,19.5-2.75,4.25-3.5,5.25a10,10,0,0,1-1.75,1.75s-11.75,6.5-14.75,8.25-4.5,3.75-3.5,5.75,4.25,2,5.5,2h33.5a10.61,10.61,0,0,0,2.25-6.75c-.25-3.75-1-5-1-5s1.75-3,1.25-5.25a5.2,5.2,0,0,0-1.5-3s2.5-51.75,2.5-56.75V383.39H237.67Z" style="fill:#fff;stroke:#263238;stroke-linecap:round;stroke-linejoin:round"></path><path d="M264.17,465.14c-.25-3.75-1-5-1-5s1.75-3,1.25-5.25a6.66,6.66,0,0,0-1-2.48c-4,2.29-12.46,2.73-12.46,2.73a11.65,11.65,0,0,0-.5-5.5c-1-3.5-4-.75-4-.75s-2.75,4.25-3.5,5.25a10,10,0,0,1-1.75,1.75s-11.75,6.5-14.75,8.25-4.5,3.75-3.5,5.75,4.25,2,5.5,2h33.5A10.61,10.61,0,0,0,264.17,465.14Z" style="fill:#92E3A9;stroke:#263238;stroke-linecap:round;stroke-linejoin:round"></path><path d="M243.92,454.14a8.06,8.06,0,0,1,3.75,2.5,27.12,27.12,0,0,1,2,3.25l-6.75,3s-3-4-4.75-4.75C238.17,458.14,241.92,453.64,243.92,454.14Z" style="fill:#fff;stroke:#263238;stroke-linecap:round;stroke-linejoin:round"></path><path d="M258.17,467.89c-3.25,1-27.25,1.25-28.75,1s-1-2.5-1.75-4c-.47-.93-2.29.07-3.6,1-1.35,1.29-1.84,2.66-1.15,4,1,2,4.25,2,5.5,2h33.5a10.61,10.61,0,0,0,2.25-6.75C262.17,464.89,261.42,466.89,258.17,467.89Z" style="fill:#fff;stroke:#263238;stroke-linecap:round;stroke-linejoin:round"></path><path d="M224.92,315.39s-2,25.25-2,32.5-.5,37.75-.5,37.75a81.91,81.91,0,0,0,19.75,4c9.75.5,22.25-1.75,22.25-1.75a37.58,37.58,0,0,0,14.25,5c7.5.75,24-.75,26-1.5s7.5-2.75,7.5-2.75l.75-69.5-51.25-15.25Z" style="fill:#fff;stroke:#263238;stroke-linecap:round;stroke-linejoin:round"></path><line x1="264.42" y1="387.89" x2="264.17" y2="344.89" style="fill:#fff;stroke:#263238;stroke-linecap:round;stroke-linejoin:round"></line><path d="M267.17,203.39s-10.75,3.5-20.5,7.75-14.25,6.75-19.75,18.5-10.75,21.25-10.75,21.25l16.5,9.75-10.5,55,23.75,19.5,8.25-6.75,11,12s16.5-6.5,22-8.5,26.75-10.75,26.75-10.75l4-66.5-.25-31s-3.75-5-12-11-15-9.75-22.5-11S267.17,203.39,267.17,203.39Z" style="fill:#263238;stroke:#263238;stroke-linecap:round;stroke-linejoin:round"></path><path d="M267.92,219.64s-13.5,85-13.5,104.75" style="fill:none;stroke:#fff;stroke-linecap:round;stroke-linejoin:round"></path><line x1="232.67" y1="260.64" x2="241.42" y2="225.64" style="fill:none;stroke:#fff;stroke-linecap:round;stroke-linejoin:round"></line><path d="M264.38,201.31s-4.7,5.65-6,10.29-4.28,5.85-1.07,6.05,14.77-1.41,17.12-.2,10.27,9.28,12.2,8.27,2.35-5,3.63-8.88-.85-11.5-5.77-15.33S270.8,196.46,264.38,201.31Z" style="fill:#fff;stroke:#263238;stroke-linecap:round;stroke-linejoin:round"></path><path d="M268.24,202.05s-1,16.12,1,16.12,14.16-14.35,14.16-14.35Z" style="fill:#fff;stroke:#263238;stroke-linecap:round;stroke-linejoin:round"></path><path d="M268.24,202.05s-.13,2.19-.2,4.95a14.92,14.92,0,0,0,9.66,2.72l.55-.06c2.79-3.09,5.13-5.84,5.13-5.84Z" style="fill:#263238;stroke:#263238;stroke-linecap:round;stroke-linejoin:round"></path><path d="M268,175.11s-1.18-5.12-4.13-1,1.38,10.62,1.38,10.62Z" style="fill:#fff;stroke:#263238;stroke-linecap:round;stroke-linejoin:round"></path><path d="M269.81,162.91s-2.86-.45-2.86,3.45a31.76,31.76,0,0,0,1.14,7.78l4.36-10.76-1.84-.23" style="fill:#d4d4d4;stroke:#6e6e6e;stroke-linecap:round;stroke-linejoin:round"></path><path d="M270.6,160.55s-6.69,26.55-6.49,30.29,4.33,12.58,11,12.58,14.95-2,17.7-5.7,8.65-17.3,10.23-21.63,1.77-9.83-1.77-14.55-17.31-5.7-22.81-5.11A11,11,0,0,0,270.6,160.55Z" style="fill:#fff;stroke:#263238;stroke-miterlimit:10"></path><path d="M269.81,162.91l30.68-1.57s1.18-.39,1.77-2.75-7.47-7.87-18.49-9.64-18.28,1.58-17.5,7.48S269.81,162.91,269.81,162.91Z" style="fill:#d4d4d4;stroke:#6e6e6e;stroke-miterlimit:10"></path><path d="M301.67,181.79s5.51-2,6.29,2.36-3.14,6.3-5.9,6.89-4.13-.4-4.13-.4Z" style="fill:#fff;stroke:#263238;stroke-linecap:round;stroke-linejoin:round"></path><path d="M302.26,161.73s-.26.17-.64.45c-1.23.91-3.74,3-3.29,4.47a56.69,56.69,0,0,1,1.77,9.44c0,1.77-5.51,15.54-7.48,16.52a12.4,12.4,0,0,1-3.73,1.18,18,18,0,0,0-3.16-7.5,7.25,7.25,0,0,0-2.55-1.74s-3.32,2.87-6.09,1.57c-2.58-1.21-2-5.51-2-5.51s-6.68,2.76-8.85,4.72-3.73,4.33-3.73,9.84,7.86,13.17,16.12,12.38,14-3.14,16.52-8.85,7.28-17.5,8.65-20.45,3.15-6.88,2.56-10.42S302.26,161.73,302.26,161.73Z" style="fill:#d4d4d4;stroke:#6e6e6e;stroke-miterlimit:10"></path><path d="M279.64,174.32c0,.79-4.52,6.29-4.52,6.29" style="fill:none;stroke:#263238;stroke-miterlimit:10"></path><line x1="275.91" y1="177.47" x2="271.19" y2="178.06" style="fill:none;stroke:#263238;stroke-miterlimit:10"></line><path d="M283.77,178.45s3.15,2.75,5.51,3" style="fill:none;stroke:#263238;stroke-miterlimit:10"></path><path d="M273.35,168.22s2.56-3.54,7.08,0" style="fill:none;stroke:#263238;stroke-miterlimit:10"></path><path d="M286.13,170s6.69-.78,7.28,6.3" style="fill:none;stroke:#263238;stroke-miterlimit:10"></path><path d="M287.64,175.48c-.38,1-1.14,1.68-1.7,1.47s-.71-1.2-.33-2.22,1.14-1.67,1.7-1.47S288,174.46,287.64,175.48Z" style="fill:#263238"></path><path d="M276.33,172.73c-.37,1-1.13,1.68-1.69,1.47s-.71-1.2-.34-2.22,1.14-1.68,1.7-1.47S276.71,171.71,276.33,172.73Z" style="fill:#263238"></path><path d="M271.78,187.69s2.56,3.54,10.42,3.15" style="fill:none;stroke:#263238;stroke-linecap:round;stroke-linejoin:round"></path><path d="M278.44,306.09a61.34,61.34,0,0,0-6.85,3.81c-1.39,1.14-5.2,3.67-5.58,4.82s2,1.64,3.17,1.14a35.17,35.17,0,0,0,3.3-1.91l2.54-.38,5.58-6.72S280.47,306,278.44,306.09Z" style="fill:#fff;stroke:#263238;stroke-linecap:round;stroke-linejoin:round"></path><path d="M312.21,262.94l2.75,12s-5.54,2.95-13,11.95a138.72,138.72,0,0,1-14.5,15s-1.57,2.19-6.57,3.44-8.14,8.53-9.64,10.78-2.27,4.32-1.27,4.57,3.23-1.29,3.23-1.29-.75,3,1.25,2.75a3.66,3.66,0,0,0,2.75-2.23s-.09,4.41,2.41,2.41,1.65-1.39,1.65-1.39.41,2.76,2.16,1,6.28-5.3,6.28-5.3,3.5-2,4.25-4.5a10.29,10.29,0,0,1,2.75-4.25s21.46-12.3,27.19-16.75,10.1-12.7,10.85-13.95-4.75-21.5-4.75-21.5Z" style="fill:#fff;stroke:#263238;stroke-linecap:round;stroke-linejoin:round"></path><path d="M273.17,319.39s4.76-9,7.05-10" style="fill:none;stroke:#263238;stroke-linecap:round;stroke-linejoin:round"></path><path d="M277.17,319.91s3.81-7,6.85-9" style="fill:none;stroke:#263238;stroke-linecap:round;stroke-linejoin:round"></path><path d="M281.23,320.93s2.92-5.71,6.22-7.36" style="fill:none;stroke:#263238;stroke-linecap:round;stroke-linejoin:round"></path><path d="M313.67,219.64s5.75,3.25,8.25,8,13.54,30.05,13.54,30.05l-25.25,9-5.5-17.75" style="fill:#263238;stroke:#263238;stroke-linecap:round;stroke-linejoin:round"></path><polyline points="300.07 242.37 307.62 266.74 312.84 265" style="fill:none;stroke:#fff;stroke-linecap:round;stroke-linejoin:round"></polyline></g><g id="freepik--Table--inject-13"><path d="M309,287.91H274.42c-7.8,0-14.13-1.19-14.13,2.38s1,4.37,3.9,4.37h51.17s4.88,0,4.88-3.58S312.44,287.91,309,287.91Z" style="fill:#fff;stroke:#263238;stroke-linecap:round;stroke-linejoin:round"></path><path d="M309,294.26H274.42c-7.8,0-14.13-1.19-14.13,2.38s1,4.37,3.9,4.37h51.17s4.88,0,4.88-3.58S312.44,294.26,309,294.26Z" style="fill:#a1a1a1;stroke:#263238;stroke-linecap:round;stroke-linejoin:round"></path><path d="M309,300.61H274.42c-7.8,0-14.13-1.19-14.13,2.38s1,4.37,3.9,4.37h51.17s4.88,0,4.88-3.57S312.44,300.61,309,300.61Z" style="fill:#fff;stroke:#263238;stroke-linecap:round;stroke-linejoin:round"></path><path d="M309,307H274.42c-7.8,0-14.13-1.19-14.13,2.38s1,4.37,3.9,4.37h51.17s4.88,0,4.88-3.57S312.44,307,309,307Z" style="fill:#a1a1a1;stroke:#263238;stroke-linecap:round;stroke-linejoin:round"></path><path d="M245.85,286.12a12.33,12.33,0,0,1,5.71,5.7,50,50,0,0,1,3,9.79s9,0,9.24,3.4-.81,4.75-2.72,6.38a10.82,10.82,0,0,1-6.79,1.91c-.82-.28-12.5-.55-12.5-.55l.27-25.55S243.68,283.94,245.85,286.12Z" style="fill:#fff;stroke:#263238;stroke-linecap:round;stroke-linejoin:round"></path><path d="M219.22,282s-4.08,1.36-9.24,8.15-1.91,20.93,0,22.56,37-1.09,37-1.09,2.45-5.7,2.45-15.76-6.26-14.68-15.22-16S219.22,282,219.22,282Z" style="fill:#fff;stroke:#263238;stroke-linecap:round;stroke-linejoin:round"></path><ellipse cx="231.45" cy="278.64" rx="17.12" ry="16.31" style="fill:#fff;stroke:#263238;stroke-linecap:round;stroke-linejoin:round"></ellipse><ellipse cx="231.31" cy="288.83" rx="7.47" ry="6.66" style="fill:#fff;stroke:#263238;stroke-linecap:round;stroke-linejoin:round"></ellipse><ellipse cx="231.18" cy="291.82" rx="2.72" ry="2.04" style="fill:#263238;stroke:#263238;stroke-linecap:round;stroke-linejoin:round"></ellipse><ellipse cx="224.38" cy="279.46" rx="1.36" ry="2.17" style="fill:#263238"></ellipse><path d="M239.6,279.46c0,1.2-.61,2.17-1.36,2.17s-1.36-1-1.36-2.17.61-2.18,1.36-2.18S239.6,278.26,239.6,279.46Z" style="fill:#263238"></path><path d="M215.46,277.79a35,35,0,0,1,5.63-8.6,6.66,6.66,0,1,0-6.36,8.64C215,277.83,215.22,277.81,215.46,277.79Z" style="fill:#fff;stroke:#263238;stroke-linecap:round;stroke-linejoin:round"></path><circle cx="214.73" cy="271.17" r="3.67" style="fill:#fff;stroke:#263238;stroke-linecap:round;stroke-linejoin:round"></circle><path d="M245.51,277.79a34.91,34.91,0,0,0-5.64-8.6,6.66,6.66,0,1,1,6.36,8.64C246,277.83,245.75,277.81,245.51,277.79Z" style="fill:#fff;stroke:#263238;stroke-linecap:round;stroke-linejoin:round"></path><path d="M242.56,271.17a3.67,3.67,0,1,1,3.67,3.67A3.67,3.67,0,0,1,242.56,271.17Z" style="fill:#fff;stroke:#263238;stroke-linecap:round;stroke-linejoin:round"></path><path d="M230.9,303h21.2s4.08-11.42,10.06-8.16,2.17,18.49,2.17,18.49H220.85" style="fill:#fff;stroke:#263238;stroke-linecap:round;stroke-linejoin:round"></path><path d="M263.79,305c0,3.52-1.22,6.38-2.72,6.38s-2.72-2.86-2.72-6.38,1.22-6.39,2.72-6.39S263.79,301.48,263.79,305Z" style="fill:#fff;stroke:#263238;stroke-linecap:round;stroke-linejoin:round"></path><path d="M220.85,303h21.2s4.07-11.42,10-8.16,2.18,18.49,2.18,18.49H210.79" style="fill:#fff;stroke:#263238;stroke-linecap:round;stroke-linejoin:round"></path><path d="M253.73,305c0,3.52-1.21,6.38-2.71,6.38s-2.72-2.86-2.72-6.38,1.22-6.39,2.72-6.39S253.73,301.48,253.73,305Z" style="fill:#fff;stroke:#263238;stroke-linecap:round;stroke-linejoin:round"></path><path d="M213,290.47s-3.27,17.39-1.09,19.56,15,3.81,17.94,2.72,4.62-5.43,2.71-8.7-8.15-6.79-8.15-6.79l-.54-2.45" style="fill:#fff;stroke:#263238;stroke-linecap:round;stroke-linejoin:round"></path><rect x="170.02" y="296.72" width="34.52" height="16.31" style="fill:#a1a1a1;stroke:#263238;stroke-linecap:round;stroke-linejoin:round"></rect><line x1="170.29" y1="303.24" x2="204.27" y2="303.24" style="fill:none;stroke:#263238;stroke-linecap:round;stroke-linejoin:round"></line><path d="M327.93,307.86s1.91-21.47,5.71-22,15.49-2.17,18.21.55,6.25,20.93,6.25,20.93S354,310.58,344,310.85,327.93,307.86,327.93,307.86Z" style="fill:#fff;stroke:#263238;stroke-linecap:round;stroke-linejoin:round"></path><path d="M358.1,307.32s-.83-4.27-2-9h-27c-.8,5-1.21,9.51-1.21,9.51s6,3.26,16,3S358.1,307.32,358.1,307.32Z" style="fill:#263238;stroke:#263238;stroke-linecap:round;stroke-linejoin:round"></path><path d="M363.54,302.7s-5.44,5.7-17.67,5.7-14.13,1.36-22-4.89-6.8-4.35-5.17,0,6.53,8.7,18.21,9.79,26.09-3.27,31.26-9S372,296.72,363.54,302.7Z" style="fill:#fff;stroke:#263238;stroke-linecap:round;stroke-linejoin:round"></path><rect x="165.67" y="335.89" width="5.33" height="133.33" style="fill:#a1a1a1;stroke:#263238;stroke-linecap:round;stroke-linejoin:round"></rect><path d="M163,461.89h10.67a0,0,0,0,1,0,0v7.66a2.34,2.34,0,0,1-2.34,2.34h-6a2.34,2.34,0,0,1-2.34-2.34v-7.66A0,0,0,0,1,163,461.89Z" style="fill:#263238;stroke:#263238;stroke-linecap:round;stroke-linejoin:round"></path><rect x="370.83" y="335.89" width="5.33" height="133.33" style="fill:#a1a1a1;stroke:#263238;stroke-linecap:round;stroke-linejoin:round"></rect><path d="M368.17,461.89h10.67a0,0,0,0,1,0,0v7.66a2.34,2.34,0,0,1-2.34,2.34h-6a2.34,2.34,0,0,1-2.34-2.34v-7.66A0,0,0,0,1,368.17,461.89Z" style="fill:#263238;stroke:#263238;stroke-linecap:round;stroke-linejoin:round"></path><path d="M380.61,312.87h-218s-3.36,0-1.68,5.45-4.61,39-5.45,47.79-1.26,16.77-1.26,16.77,3.77,3.36,12.16,2.94,25.57-4.61,34.8-2.94,65.4,6.71,80.91,6.71,35.63-.42,48.63-2.51,28.93-3.36,34.8-3.78,20.12,1.26,20.12,1.26-2-52.47-3.35-64.56C381.87,316.23,384,314.13,380.61,312.87Z" style="fill:#92E3A9;stroke:#263238;stroke-linecap:round;stroke-linejoin:round"></path><line x1="171.18" y1="319.96" x2="167.72" y2="349.09" style="fill:none;stroke:#263238;stroke-linecap:round;stroke-linejoin:round"></line><line x1="173.96" y1="323.08" x2="174.65" y2="343.54" style="fill:none;stroke:#263238;stroke-linecap:round;stroke-linejoin:round"></line><line x1="175" y1="347.01" x2="175.35" y2="353.95" style="fill:none;stroke:#263238;stroke-linecap:round;stroke-linejoin:round"></line><line x1="230.49" y1="318.22" x2="230.49" y2="344.58" style="fill:none;stroke:#263238;stroke-linecap:round;stroke-linejoin:round"></line><line x1="232.88" y1="368.86" x2="232.92" y2="374.76" style="fill:none;stroke:#263238;stroke-linecap:round;stroke-linejoin:round"></line><line x1="232.57" y1="319.61" x2="232.85" y2="362.62" style="fill:none;stroke:#263238;stroke-linecap:round;stroke-linejoin:round"></line><line x1="375.82" y1="317.88" x2="376.17" y2="343.54" style="fill:none;stroke:#263238;stroke-linecap:round;stroke-linejoin:round"></line><line x1="372.35" y1="318.22" x2="370.62" y2="332.1" style="fill:none;stroke:#263238;stroke-linecap:round;stroke-linejoin:round"></line><line x1="379.98" y1="327.94" x2="380.67" y2="336.26" style="fill:none;stroke:#263238;stroke-linecap:round;stroke-linejoin:round"></line></g><g id="freepik--character-1--inject-13"><path d="M107.12,194.65s7.41,3.29,11.12,6.59a27.85,27.85,0,0,1,5.35,6.17s-5.35,1.65-7,3.29a35.75,35.75,0,0,0-3.71,4.94l-8.64-21Z" style="fill:#fff;stroke:#263238;stroke-linecap:round;stroke-linejoin:round"></path><path d="M114.39,187.53s-4.92,4.93-6.16,8.13l-1.23,3.2-16.5-10.1,4.92-12.32,4.69-14s1.47-4.68,8.62-3.2,10.59,3.69,10.59,9.11S114.39,187.53,114.39,187.53Z" style="fill:#fff;stroke:#263238;stroke-linecap:round;stroke-linejoin:round"></path><path d="M111.48,190.75c1.5-1.8,2.91-3.22,2.91-3.22s1.19-3.33,2.4-7.36l-5.55-11.43-4.77-1.3-1.31,5.86a28.59,28.59,0,0,0,2,10.86A22.46,22.46,0,0,0,111.48,190.75Z" style="fill:#263238;stroke:#263238;stroke-linecap:round;stroke-linejoin:round"></path><path d="M80.43,374a87.1,87.1,0,0,1,0,13.68c-.57,8.27-4,16.25-4,23.38s1.71,34.21.57,40.2-3.42,10.26-2.28,12.54a6.41,6.41,0,0,0,4.56,3.14c1.14.28,35.35,0,35.35,0s.86-.29.86-2.28-4.56-4.28-7.13-5.42-14.83-3.42-16.25-5.7a11,11,0,0,1-1.71-6.27c0-2,5.13-32.79,6.84-38.78s4.56-34.78,4.56-34.78Z" style="fill:#fff;stroke:#263238;stroke-linecap:round;stroke-linejoin:round"></path><polygon points="89.1 467.46 73.87 466.05 73.87 469.48 92.12 470.33 92.12 467.48 89.1 467.46" style="fill:#263238;stroke:#263238;stroke-linecap:round;stroke-linejoin:round"></polygon><path d="M84.92,373.84a118.59,118.59,0,0,1,.24,15.27c-.49,6.16-2.71,9.37-2,18.24s5.67,36.46,5.67,42.12-1.48,16.75.24,18,35.48,0,35.48,0h5.91s1.48-1.24-1.48-3.95-16-5.66-20.69-9.36a37.34,37.34,0,0,1-6.65-6.4s2.71-35,2.71-45.33,1.23-19.71,1.48-24.39.24-5.91.24-5.91Z" style="fill:#fff;stroke:#263238;stroke-linecap:round;stroke-linejoin:round"></path><path d="M68.9,317.18s1.73,18.48,2,24.88,1,31.53,1,31.53,10.1,4.69,20.94,5.18,25.37-3.45,25.37-3.45,1.24-36.21,1.24-45.33V317.92A100.73,100.73,0,0,1,68.9,317.18Z" style="fill:#263238;stroke:#263238;stroke-linecap:round;stroke-linejoin:round"></path><path d="M66,309.05l-.25,9.36a79.24,79.24,0,0,0,32.77,7.15c18.72,0,26.36-5.42,26.36-5.42L122.61,310S84.18,314,66,309.05Z" style="fill:#fff;stroke:#263238;stroke-linecap:round;stroke-linejoin:round"></path><path d="M133.25,229.14s3.14-8.06,3.14-12.19,1.77-7.87,3.74-9.24,8.46-3.35,8.46-3.35l1.77,17.9s-8.66,7.27-10.23,8.85a24.92,24.92,0,0,0-2.75,3.34Z" style="fill:#fff;stroke:#263238;stroke-miterlimit:10"></path><polygon points="145.83 196.5 146.03 221.08 171.2 228.55 177.69 226.19 178.48 197.68 154.29 195.91 145.83 196.5" style="fill:#263238;stroke:#263238;stroke-linecap:round;stroke-linejoin:round"></polygon><polygon points="159.76 198.23 159.92 225.03 171.2 228.55 170.73 199.33 159.76 198.23" style="fill:#fff;stroke:#263238;stroke-linecap:round;stroke-linejoin:round"></polygon><polygon points="171.2 228.55 177.69 226.19 178.48 197.68 154.29 195.91 145.83 196.5 170.26 199.49 171.2 228.55" style="fill:#fff;stroke:#263238;stroke-linecap:round;stroke-linejoin:round"></polygon><line x1="170.73" y1="199.33" x2="178.48" y2="197.68" style="fill:none;stroke:#263238;stroke-linecap:round;stroke-linejoin:round"></line><path d="M168.43,204.34a3.34,3.34,0,1,1-3.34-3.34A3.34,3.34,0,0,1,168.43,204.34Z" style="fill:#fff;stroke:#263238;stroke-linecap:round;stroke-linejoin:round"></path><ellipse cx="152.91" cy="209.48" rx="5.51" ry="9.24" style="fill:#fff;stroke:#263238;stroke-linecap:round;stroke-linejoin:round"></ellipse><line x1="172.18" y1="197.09" x2="150.95" y2="189.22" style="fill:none;stroke:#263238;stroke-linecap:round;stroke-linejoin:round"></line><rect x="164.31" y="209.36" width="1.72" height="15.04" style="fill:#fff;stroke:#263238;stroke-linecap:round;stroke-linejoin:round"></rect><path d="M136.2,219.51s.59-9,1.18-10.62,8.06-6.49,9-7.67,2.76,1.37,1.38,3.34-4.72,5.7-4.72,5.7,2.16,9.44-2,12.39" style="fill:#fff;stroke:#263238;stroke-miterlimit:10"></path><polygon points="127.55 233.07 134.03 226.59 139.74 233.27 134.43 239.96 127.55 233.07" style="fill:#fff;stroke:#263238;stroke-miterlimit:10"></polygon><path d="M117.52,238.78s9-7.67,10.62-6.89,9.24,6.1,8.45,8.66-15.73,17.3-18.09,18.29S117.52,238.78,117.52,238.78Z" style="fill:#92E3A9;stroke:#263238;stroke-miterlimit:10"></path><path d="M88,186.66s-10.83,13.55-13.79,28.08-.49,36.47-1.48,42.87-2.46,30.55-3.94,34.24-6.65,11.09-5.17,14.29a25.41,25.41,0,0,0,3.69,5.67s5.91,3.45,22.67,3.45,25.12,0,28.57-1.73,3.94.25,5.42-3.2,2.22-3.94,1-9.11S121,290.13,121,284.46s0-41.88-2.47-56.41-1.72-20-4.19-23.65-12.31-9.12-17.49-13.31S88,186.66,88,186.66Z" style="fill:#92E3A9;stroke:#263238;stroke-linecap:round;stroke-linejoin:round"></path><path d="M91.45,183s18.73,15.27,20,16.25,3,5.18,3,5.18l-10.59,4.68s-12.32-17-14.78-19.22l-2.46-2.21S88.25,181.24,91.45,183Z" style="fill:#fff;stroke:#263238;stroke-linecap:round;stroke-linejoin:round"></path><path d="M108.07,451.69a72.26,72.26,0,0,0-2,16.75h26.61s2.71-2.71-2-6.9S108.07,451.69,108.07,451.69Z" style="fill:#263238;stroke:#263238;stroke-linecap:round;stroke-linejoin:round"></path><polygon points="132.71 468.44 132.71 471.89 83.19 471.89 83.19 467.7 132.71 468.44" style="fill:#263238;stroke:#263238;stroke-linecap:round;stroke-linejoin:round"></polygon><path d="M153.7,233.47s4.13-2.56,4.33-5.11,0-7.87,1.37-10,4.33-5.31,5.12-6.89,2-2.75,2.36-.39.39,3.34-1,4.72a9.37,9.37,0,0,0-2,2.95s9.83-5.7,11.79-7.28,3.94-2.16,3.94-.19-1.58,2.36-3.15,3.93a60.23,60.23,0,0,1-5.9,4.72c-.59.39-.59,1.38,1.57.79s7.48-4.72,8.46-5.51,1.77-.59,1.57,1.18-1.77,3.54-3,4.72-5.9,5.11-5.9,5.11.4,1.77,1.77.4a65.09,65.09,0,0,1,6.1-4.53s1.57-.78,1.77.59-.79,2.76-2.36,3.94-4.13,4.71-5.9,6.29-10.62,3.54-11.4,3.93-5.12,3.54-5.12,3.54Z" style="fill:#fff;stroke:#263238;stroke-miterlimit:10"></path><polygon points="147.8 236.03 154.49 232.09 160.39 241.14 153.9 246.05 147.8 236.03" style="fill:#fff;stroke:#263238;stroke-miterlimit:10"></polygon><path d="M89.2,204.17s-7.87,2.36-8.06,13.17,5.11,17.31,5.9,18.09,30.08,34,32.84,35.4a8.35,8.35,0,0,0,7.47.59c3-1,26.15-22.22,27.53-23.6s-1.18-5.11-3.15-8.45-6.29-4.33-8.65-3.15-16.91,10-16.91,10-15.54-22.61-21.24-30.09-6.49-9.24-10.62-9.83" style="fill:#92E3A9;stroke:#263238;stroke-miterlimit:10"></path><path d="M89.73,158.08s-.25,8.87-3.45,12.57-5.67,3.45-5.67,3.45-.73,4.43,2.47,5.66,5.66-1.48,5.66-1.48,1,.74-.24,2.71A8.36,8.36,0,0,1,86,183.7a2.86,2.86,0,0,0,3.45,1.73C92,184.69,94.9,181,94.9,181s-1.48,2,2,3.45,5.67.5,5.67.5a29.45,29.45,0,0,1-1.23-8.38c0-4.68,1-11.33,4.19-11.58s10.59,1.48,11.57-1.72a19.53,19.53,0,0,0,1-5.18Z" style="fill:#263238;stroke:#263238;stroke-linecap:round;stroke-linejoin:round"></path><path d="M129.15,165.72s.49,5.17,2,6.41,2.71,1.47,1.23,2.21a21.61,21.61,0,0,1-4.68,1.23,22.25,22.25,0,0,1-2.47,8.63c-2.46,5.17-5.63,8.85-8.09,7.13s-7.92-5.16-10.38-11.57-1.23-8.37-1.23-8.37-4-1.73-4-4.93,2.64-7.51,5.35-5.54a6.08,6.08,0,0,1,2.78,4.31s5.67,1.23,6.16-2.22a41.76,41.76,0,0,0,.5-4.19l12.31.74Z" style="fill:#fff;stroke:#263238;stroke-linecap:round;stroke-linejoin:round"></path><path d="M125.77,167.47c0,1.12-.46,2-1,2s-1-.9-1-2,.46-2,1-2S125.77,166.35,125.77,167.47Z" style="fill:#263238"></path><path d="M124.49,178.66a6.47,6.47,0,0,1-5.23-3.2" style="fill:none;stroke:#263238;stroke-linecap:round;stroke-linejoin:round"></path><path d="M89.73,158.08,129.88,162s.74-12.56-1.23-17.73-9.6-11.09-18-10.84-17.49,3.69-19,8.62S89.73,158.08,89.73,158.08Z" style="fill:#fff;stroke:#263238;stroke-linecap:round;stroke-linejoin:round"></path><path d="M129.88,162l15.28,3a31.56,31.56,0,0,1-11.09,3c-5.66.24-13.55-6.65-13.55-6.65Z" style="fill:#fff;stroke:#263238;stroke-linecap:round;stroke-linejoin:round"></path></g><g id="freepik--Floor--inject-13"><line x1="12.33" y1="471.89" x2="490.36" y2="471.89" style="fill:none;stroke:#263238;stroke-linecap:round;stroke-linejoin:round"></line></g></svg>